<?xml version="1.0" standalone="no"?>
<!DOCTYPE svg PUBLIC "-//W3C//DTD SVG 20010904//EN"
 "http://www.w3.org/TR/2001/REC-SVG-20010904/DTD/svg10.dtd">
<svg version="1.0" xmlns="http://www.w3.org/2000/svg"
 width="1024.000000pt" height="1024.000000pt" viewBox="0 0 1024.000000 1024.000000"
 preserveAspectRatio="xMidYMid meet">

<g transform="translate(0.000000,1024.000000) scale(0.100000,-0.100000)"
fill="#000000" stroke="none">
<path d="M2160 8361 c-231 -7 -248 -9 -305 -33 -94 -39 -111 -50 -176 -113
-94 -92 -133 -156 -171 -284 -19 -64 -20 -98 -19 -1060 l1 -994 37 -74 c46
-91 131 -174 231 -225 113 -59 115 -59 612 -56 l455 3 0 96 0 96 -297 7 c-164
4 -366 4 -450 0 -145 -6 -156 -5 -205 16 -60 26 -155 119 -180 177 -14 34 -16
135 -14 1003 1 531 4 973 7 984 4 10 22 45 41 78 27 45 50 69 96 99 121 78
-192 71 3297 72 l3126 0 56 -25 c104 -48 177 -147 201 -272 9 -45 11 -296 7
-986 l-5 -925 -34 -58 c-41 -71 -87 -119 -144 -149 -42 -22 -45 -22 -412 -18
-203 3 -716 5 -1138 5 -760 0 -768 0 -772 -20 -5 -26 -16 -175 -12 -176 1 0
508 -4 1127 -8 1079 -8 1127 -8 1192 10 166 46 265 124 342 270 l46 85 0 995
c0 958 0 997 -19 1064 -29 102 -52 152 -105 221 -71 95 -135 137 -267 174
l-74 21 -2915 3 c-1603 2 -3025 0 -3160 -3z"/>
<path d="M6664 8029 c-48 -31 -64 -59 -64 -117 0 -60 17 -101 56 -131 22 -17
41 -21 102 -21 73 0 75 1 112 38 68 68 64 180 -8 228 -43 30 -155 31 -198 3z"/>
<path d="M2556 8025 c-39 -30 -56 -68 -56 -129 0 -54 3 -61 38 -96 32 -32 47
-39 96 -45 82 -11 129 6 166 57 50 68 38 171 -24 212 -34 21 -192 22 -220 1z"/>
<path d="M3149 8025 c-40 -22 -62 -77 -57 -143 4 -48 10 -60 41 -89 35 -32 40
-33 116 -33 72 0 83 3 112 27 77 65 78 197 0 237 -39 21 -175 21 -212 1z"/>
<path d="M3714 8008 c-32 -30 -38 -42 -42 -90 -5 -67 17 -121 62 -150 46 -29
166 -21 202 13 39 36 54 72 54 129 0 43 -5 55 -34 88 -34 36 -36 37 -119 40
-85 4 -85 4 -123 -30z"/>
<path d="M4292 8012 c-37 -35 -46 -65 -40 -138 4 -45 10 -61 36 -87 29 -29 39
-32 104 -35 121 -5 178 44 178 154 0 93 -54 134 -173 134 -68 0 -78 -2 -105
-28z"/>
<path d="M4977 8030 c-73 -5 -81 -7 -108 -38 -54 -60 -35 -181 35 -228 20 -12
43 -15 100 -12 63 3 79 7 101 28 40 37 55 73 55 131 0 46 -4 55 -34 84 -42 39
-51 41 -149 35z"/>
<path d="M5478 8015 c-70 -47 -76 -164 -13 -234 33 -36 34 -36 109 -34 90 1
132 21 158 73 24 46 23 127 0 163 -33 49 -51 56 -137 57 -69 0 -85 -3 -117
-25z"/>
<path d="M6076 8025 c-57 -43 -72 -124 -37 -201 26 -57 54 -74 121 -74 107 0
161 50 168 155 4 63 3 66 -31 100 -35 35 -36 35 -118 35 -58 -1 -90 -5 -103
-15z"/>
<path d="M1950 7994 c-66 -56 -73 -115 -22 -176 36 -42 79 -58 159 -58 80 0
104 13 133 70 33 65 21 125 -36 169 -22 18 -41 21 -115 21 -80 0 -90 -2 -119
-26z"/>
<path d="M7625 8001 l-360 -6 -32 -24 c-40 -30 -57 -71 -50 -118 14 -82 78
-128 168 -118 l56 6 -1 -159 c-1 -157 -1 -159 26 -194 15 -20 48 -50 74 -67
l47 -31 336 0 c377 0 374 0 421 74 21 35 22 50 27 279 6 230 5 244 -14 282
-40 77 -48 80 -202 81 -75 0 -298 -2 -496 -5z"/>
<path d="M2125 7629 c-104 -5 -200 -14 -213 -19 -36 -15 -62 -68 -62 -126 0
-105 11 -144 50 -186 l38 -39 250 3 c250 3 250 3 276 27 40 38 77 121 78 177
1 62 -21 107 -72 140 -48 32 -92 35 -345 23z"/>
<path d="M2906 7633 c-48 -5 -80 -25 -106 -68 -16 -25 -20 -50 -20 -114 l0
-82 43 -46 c41 -43 46 -45 108 -50 78 -6 114 8 156 64 25 33 28 46 31 127 3
82 2 94 -19 120 -39 49 -81 60 -193 49z"/>
<path d="M3431 7618 c-56 -21 -75 -57 -79 -148 -5 -90 11 -133 59 -169 45 -33
123 -39 182 -13 66 29 87 75 87 186 0 80 -2 88 -28 117 -27 30 -34 32 -108 36
-47 2 -93 -2 -113 -9z"/>
<path d="M3977 7610 c-45 -36 -57 -70 -57 -165 0 -124 37 -175 128 -175 41 0
92 30 92 54 0 7 23 27 50 44 60 37 73 66 68 145 -4 46 -10 63 -31 85 -25 25
-34 27 -125 30 -87 3 -100 2 -125 -18z"/>
<path d="M5134 7596 l-34 -34 0 -107 c0 -90 3 -111 20 -135 29 -40 68 -53 157
-49 62 3 85 9 111 28 44 31 52 56 52 153 0 144 -35 178 -185 178 -86 0 -88 -1
-121 -34z"/>
<path d="M6340 7612 c-56 -28 -72 -70 -68 -182 4 -101 15 -130 56 -152 36 -19
100 -14 130 11 15 12 45 35 67 52 59 45 75 75 75 141 0 47 -5 62 -27 89 -15
17 -42 38 -60 45 -45 19 -131 17 -173 -4z"/>
<path d="M6909 7615 c-56 -30 -78 -103 -64 -211 6 -47 13 -64 40 -91 30 -30
38 -33 94 -33 68 0 102 14 141 55 22 23 25 37 28 116 3 76 1 93 -17 122 -11
18 -32 39 -46 45 -35 16 -144 14 -176 -3z"/>
<path d="M4549 7581 c-29 -29 -39 -47 -39 -71 l0 -32 74 7 c76 7 146 -9 225
-49 17 -9 36 -14 41 -11 14 9 12 96 -3 122 -7 12 -28 34 -47 48 -30 22 -43 25
-123 25 l-89 0 -39 -39z"/>
<path d="M5735 7589 l-35 -31 0 -105 0 -105 39 -39 c33 -33 45 -39 82 -39 66
0 117 18 157 55 36 33 37 35 41 120 4 99 -5 125 -55 155 -24 16 -49 20 -112
20 -77 0 -83 -2 -117 -31z"/>
<path d="M4500 7298 c-63 -24 -146 -101 -174 -163 -25 -53 -37 -180 -37 -402
-1 -101 -4 -183 -7 -183 -4 1 -32 7 -62 14 -68 16 -172 6 -228 -23 -60 -31
-129 -114 -148 -177 l-15 -54 -100 0 c-63 0 -112 -5 -133 -14 -57 -24 -161
-134 -182 -192 l-18 -52 -68 -11 c-88 -14 -148 -43 -201 -95 -60 -58 -87 -121
-94 -220 -18 -268 78 -1087 148 -1254 59 -141 171 -281 313 -387 l39 -29 -7
-86 c-3 -47 -13 -123 -22 -170 -8 -47 -15 -142 -16 -212 0 -144 7 -132 -96
-148 -94 -15 -132 -29 -133 -48 -2 -44 3 -134 11 -207 15 -134 18 -163 35
-355 8 -102 20 -195 25 -207 12 -29 57 -30 154 -3 39 10 175 38 301 60 127 23
309 56 405 75 96 19 279 52 405 74 127 22 268 47 315 56 47 8 112 15 145 15
88 0 133 10 137 29 7 27 -9 715 -17 733 -5 13 -21 18 -63 20 l-57 3 -5 65 c-5
60 5 269 15 315 3 11 21 31 42 45 64 43 196 160 235 209 112 140 201 331 252
545 34 142 74 341 82 406 7 59 27 105 105 241 122 211 70 376 -134 425 -58 15
-78 15 -136 5 -139 -25 -258 -108 -344 -239 -55 -84 -82 -149 -97 -232 -32
-173 -42 -212 -65 -238 -20 -22 -27 -25 -42 -16 -17 11 -18 54 -18 930 l0 920
-35 58 c-98 163 -259 232 -410 174z m160 -214 c41 -35 60 -74 60 -122 0 -68
-63 -91 -146 -53 -51 23 -74 55 -74 102 0 30 7 43 35 68 44 39 83 40 125 5z
m-95 -299 c31 -12 64 -16 110 -13 l65 4 1 -786 c1 -432 4 -811 8 -843 5 -47
13 -66 50 -112 53 -66 78 -84 134 -91 70 -10 121 10 185 74 70 69 98 137 143
352 43 206 94 290 213 352 45 23 101 20 141 -6 33 -22 31 -44 -9 -124 -33 -65
-63 -101 -116 -136 -24 -16 -25 -20 -26 -134 -1 -98 -6 -131 -28 -200 -15 -46
-38 -137 -52 -202 -34 -164 -93 -319 -166 -437 -53 -84 -136 -158 -246 -218
-51 -27 -106 -58 -123 -68 l-32 -18 7 -102 c20 -298 24 -383 18 -389 -4 -4
-70 -14 -147 -23 -77 -9 -180 -22 -230 -30 -49 -8 -166 -27 -260 -41 -93 -14
-240 -37 -325 -50 -85 -13 -161 -24 -167 -24 -22 0 -19 34 32 477 12 104 14
147 6 162 -6 11 -39 35 -73 53 -142 76 -274 243 -322 408 -27 95 -66 357 -81
545 -8 99 -20 231 -26 293 -17 164 -9 290 19 329 23 33 76 57 114 51 23 -3 23
-5 29 -193 l7 -189 31 -28 c49 -44 125 -35 175 21 19 21 19 25 2 229 -10 114
-17 245 -15 290 4 82 5 84 43 119 36 33 41 35 94 31 38 -3 59 -11 68 -23 11
-15 14 -73 14 -257 0 -261 2 -273 61 -304 47 -24 84 -18 125 21 l37 35 -7 118
c-16 287 -19 538 -7 575 18 53 63 87 115 87 36 0 49 -6 79 -35 l37 -36 0 -297
c0 -266 2 -299 18 -318 44 -55 108 -55 161 0 l34 35 3 463 c3 483 10 663 25
635 5 -8 29 -23 54 -32z m401 -3373 c1 -42 6 -122 12 -177 5 -55 7 -103 4
-107 -6 -5 -115 -30 -302 -69 -25 -6 -103 -19 -175 -30 -71 -11 -186 -33 -255
-49 -245 -57 -730 -134 -735 -116 -13 45 -42 396 -33 396 3 0 93 18 199 39
107 22 262 49 344 61 83 11 202 29 265 40 63 10 198 29 300 40 102 12 214 27
250 35 36 7 79 13 95 14 l30 1 1 -78z"/>
<path d="M7125 7125 c-70 -46 -85 -78 -85 -179 0 -102 10 -127 75 -184 42 -37
52 -41 123 -48 42 -4 277 -4 522 0 497 8 484 6 544 80 28 34 31 44 34 134 4
118 -9 168 -54 194 -29 17 -74 19 -575 24 l-544 6 -40 -27z m950 -148 c19 -26
9 -44 -27 -51 -41 -8 -427 -6 -458 3 -34 9 -39 48 -8 61 13 5 120 9 251 7 209
-2 230 -4 242 -20z"/>
<path d="M2193 7130 l-273 -5 -31 -32 -32 -32 2 -117 c2 -125 10 -151 56 -194
23 -22 39 -26 123 -31 53 -4 197 -7 320 -8 248 -1 250 -1 315 67 32 33 39 49
48 105 13 82 -1 170 -34 205 -38 41 -71 52 -149 50 -40 -1 -196 -5 -345 -8z"/>
<path d="M3041 7131 c-29 -5 -52 -17 -68 -35 -21 -25 -23 -35 -23 -156 l0
-128 35 -30 c57 -51 163 -56 210 -12 42 40 55 81 55 180 0 99 -14 145 -51 168
-26 17 -101 23 -158 13z"/>
<path d="M3610 7130 c-72 -9 -86 -16 -110 -55 -16 -27 -20 -49 -20 -130 0
-112 11 -138 73 -179 33 -21 53 -26 102 -26 76 0 115 22 145 84 19 40 21 59
18 135 -2 72 -7 95 -24 118 -36 49 -91 65 -184 53z"/>
<path d="M5393 7125 c-51 -22 -63 -58 -63 -186 l0 -112 44 -43 c41 -42 46 -44
103 -44 50 0 67 5 105 30 71 47 78 63 78 183 0 115 -11 141 -70 172 -37 19
-154 19 -197 0z"/>
<path d="M5987 7130 c-20 -4 -39 -9 -40 -11 -2 -2 -13 -17 -25 -33 -20 -26
-22 -41 -22 -144 l0 -115 44 -43 c41 -42 46 -44 103 -44 48 0 68 5 105 29 26
16 51 39 57 50 6 11 11 71 11 133 0 112 -1 115 -28 141 -18 17 -47 30 -81 37
-59 11 -69 11 -124 0z"/>
<path d="M6543 7116 c-47 -35 -63 -77 -63 -173 0 -77 3 -95 23 -124 52 -78
137 -100 224 -58 75 36 83 55 83 185 0 111 -1 114 -29 146 -29 32 -32 33 -123
36 -72 3 -98 0 -115 -12z"/>
<path d="M4114 7112 c-6 -4 -14 -59 -17 -126 -5 -101 -4 -123 10 -147 10 -16
20 -29 23 -29 3 0 2 38 -3 85 -5 49 -5 110 1 144 9 62 4 85 -14 73z"/>
<path d="M7873 6555 c-33 -23 -46 -78 -40 -162 3 -41 11 -81 18 -89 7 -8 8
-14 3 -13 -5 2 -60 -1 -122 -5 l-114 -8 -29 -41 c-41 -56 -40 -104 3 -153 77
-88 205 -85 266 6 22 32 24 42 19 118 -6 78 -5 83 12 77 29 -9 141 12 161 30
26 23 36 132 17 177 -22 53 -61 78 -121 78 -30 0 -61 -6 -73 -15z"/>
<path d="M6320 6538 c-14 -8 -40 -35 -57 -62 -37 -54 -40 -92 -24 -249 8 -70
12 -82 42 -114 57 -60 97 -72 222 -66 101 5 112 8 155 37 66 45 79 79 87 221
6 113 5 122 -17 160 -35 61 -69 72 -238 79 -109 5 -151 3 -170 -6z m208 -230
c-3 -30 -6 -33 -38 -33 -26 0 -36 5 -38 18 -7 33 6 47 43 47 35 0 36 -1 33
-32z"/>
<path d="M1973 6533 c-12 -2 -45 -29 -73 -59 l-50 -56 0 -120 c0 -142 11 -172
78 -224 l45 -34 144 0 144 0 46 43 c53 51 61 82 62 242 1 115 -13 155 -69 193
-30 20 -43 22 -169 21 -75 -1 -146 -4 -158 -6z m186 -196 c6 -8 14 -28 17 -44
8 -38 -23 -63 -77 -63 -46 0 -64 20 -55 62 9 45 24 58 66 58 21 0 43 -6 49
-13z"/>
<path d="M2576 6524 c-9 -8 -28 -36 -42 -61 -26 -44 -27 -47 -20 -165 7 -134
16 -157 74 -210 l39 -35 126 -7 c139 -8 159 -3 208 51 56 61 59 70 59 193 0
100 -3 122 -22 160 -13 25 -38 55 -57 67 -32 21 -45 23 -192 23 -130 0 -160
-3 -173 -16z m205 -205 c9 -17 8 -25 -4 -37 -22 -21 -44 -9 -49 27 -4 27 -2
31 18 31 13 0 28 -9 35 -21z"/>
<path d="M3308 6531 c-88 -19 -124 -75 -114 -177 7 -72 24 -124 38 -124 6 0
27 19 47 42 98 115 167 168 257 198 69 23 77 33 42 51 -26 14 -218 21 -270 10z"/>
<path d="M5110 6316 l0 -224 47 -11 c58 -15 99 -9 238 36 86 28 127 36 190 37
78 1 82 0 165 -48 107 -62 152 -69 213 -32 87 50 94 66 102 230 7 139 6 146
-15 175 -43 62 -37 61 -510 61 l-430 0 0 -224z"/>
<path d="M6933 6485 l-45 -44 7 -148 c8 -162 16 -187 68 -227 54 -41 78 -45
208 -39 116 6 123 8 162 37 72 55 78 70 84 198 7 133 -2 170 -51 217 -44 43
-83 50 -250 51 l-139 0 -44 -45z m261 -167 c19 -27 21 -69 4 -86 -7 -7 -28
-12 -48 -12 -43 0 -60 14 -60 50 0 39 26 70 60 70 18 0 34 -8 44 -22z"/>
<path d="M8093 6272 c-16 -10 -29 -48 -37 -107 -13 -99 51 -162 153 -150 30 3
66 13 81 22 33 19 70 81 70 114 -1 42 -37 108 -65 119 -31 12 -184 13 -202 2z"/>
<path d="M7777 5152 c-57 -38 -68 -71 -42 -123 20 -38 71 -69 114 -69 25 0 42
9 72 39 44 44 48 70 19 119 -32 53 -109 69 -163 34z"/>
<path d="M2031 5122 c-45 -22 -75 -63 -67 -90 29 -89 155 -96 185 -10 18 51
-22 118 -71 118 -7 0 -28 -8 -47 -18z"/>
<path d="M2322 5123 c-39 -19 -62 -59 -62 -106 0 -27 8 -42 35 -66 55 -48 114
-42 178 17 50 47 26 127 -49 158 -43 18 -61 17 -102 -3z"/>
<path d="M6387 5102 c-25 -27 -21 -58 10 -82 22 -17 35 -20 63 -15 64 12 77
41 39 89 -25 32 -86 37 -112 8z"/>
<path d="M6291 4818 c-44 -12 -136 -105 -164 -165 -34 -73 -30 -183 11 -290
53 -143 112 -204 220 -229 50 -12 63 -12 111 3 63 19 121 70 121 104 0 52 -11
68 -49 75 -137 23 -195 88 -202 229 -3 71 0 83 41 130 22 25 45 55 51 67 17
32 -3 65 -48 77 -44 13 -47 12 -92 -1z"/>
<path d="M5788 3761 c-52 -33 -83 -81 -72 -113 12 -39 75 -97 116 -109 35 -9
46 -7 86 13 55 27 96 88 86 128 -7 30 -48 76 -86 96 -41 21 -79 17 -130 -15z"/>
<path d="M7155 3396 c-114 -36 -256 -149 -308 -244 -35 -65 -67 -189 -67 -261
0 -161 100 -337 226 -400 64 -33 240 -50 308 -31 26 7 50 19 53 27 5 13 -40
87 -60 100 -5 3 -46 12 -91 20 -147 25 -220 81 -256 197 -16 50 -7 171 17 238
38 106 143 181 273 195 74 7 89 18 97 66 13 81 -82 128 -192 93z"/>
<path d="M7438 3225 c-9 -20 -7 -34 16 -83 32 -72 33 -131 6 -206 -24 -62 -86
-126 -124 -126 -37 0 -86 46 -86 81 0 16 1 29 3 29 1 1 20 3 42 6 58 9 75 21
97 71 18 41 18 46 3 63 -38 42 -205 55 -263 20 -47 -29 -72 -89 -72 -176 0
-84 31 -157 82 -191 48 -31 172 -49 237 -33 65 15 89 35 160 131 85 114 97
180 56 325 -27 94 -128 152 -157 89z"/>
<path d="M4912 2605 c-56 -13 -94 -42 -118 -87 -21 -40 -18 -75 9 -92 60 -38
160 -26 273 31 65 33 73 40 76 70 6 47 -6 60 -64 78 -61 18 -104 18 -176 0z"/>
<path d="M4319 2479 c-36 -13 -53 -50 -46 -95 9 -56 28 -69 98 -69 54 0 63 3
85 28 24 28 32 80 16 103 -27 39 -95 54 -153 33z"/>
<path d="M3863 2401 c-44 -32 -58 -67 -51 -127 4 -38 46 -58 123 -59 140 0
197 86 116 177 -24 27 -36 32 -87 36 -53 3 -63 1 -101 -27z"/>
<path d="M3578 2378 c-66 -38 -77 -102 -26 -150 31 -29 35 -30 109 -26 113 5
141 41 108 138 -21 59 -121 79 -191 38z"/>
</g>
</svg>
